<svg width="20" height="15" viewBox="0 0 20 15" fill="none" xmlns="http://www.w3.org/2000/svg">
<path fill-rule="evenodd" clip-rule="evenodd" d="M1.32807 0.0386388C0.701196 0.161061 0.161978 0.714459 0.0393214 1.36137C-0.0145457 1.64544 -0.0143504 10.0264 0.0395558 10.3127C0.166782 10.9884 0.751431 11.5368 1.45284 11.6382C1.59002 11.6581 3.76092 11.6742 6.35213 11.6747L11.0051 11.6754L11.093 11.9196C11.9351 14.2596 14.4487 15.5195 16.797 14.7787C17.1785 14.6583 17.6826 14.4151 17.7843 14.3023C18.0262 14.0343 17.8556 13.6285 17.501 13.6286C17.4252 13.6286 17.249 13.6832 17.1093 13.75C16.4127 14.0832 15.7649 14.2023 15.039 14.1308C13.4592 13.9751 12.1726 12.8537 11.7737 11.2848C11.7146 11.0527 11.6999 10.8621 11.7028 10.3668C11.706 9.80536 11.7171 9.70634 11.8121 9.3927C12.1939 8.13262 13.1365 7.18946 14.3945 6.8086C14.7108 6.71282 14.8087 6.70176 15.371 6.69856C15.8663 6.69571 16.0569 6.71044 16.289 6.76946C17.596 7.1018 18.5926 8.03782 18.9911 9.30735C19.1383 9.77622 19.2162 10.6412 19.1425 10.9879C19.0765 11.2987 18.8201 11.5674 18.5306 11.6295C18.1172 11.7182 17.7541 11.5354 17.5742 11.1481C17.5099 11.0095 17.5015 10.8844 17.5008 10.0426C17.4999 8.99856 17.4846 8.91758 17.2669 8.80501C17.1233 8.73079 17.0415 8.73067 16.9 8.8045C16.7941 8.85969 16.7809 8.85692 16.6461 8.75083C16.0519 8.28341 15.1613 8.2111 14.4483 8.57239C14.2196 8.68825 13.8324 9.04294 13.6748 9.28083C12.9371 10.3945 13.476 11.9382 14.7577 12.3833C15.425 12.615 16.239 12.451 16.7751 11.9769L16.9683 11.8061L17.1671 12.0045C18.102 12.9368 19.7136 12.4324 19.9606 11.1301C19.9823 11.016 19.9998 10.736 19.9996 10.508C19.9986 8.99247 19.3353 7.64309 18.1515 6.74805C17.5883 6.32219 16.7089 5.96059 16.0253 5.87383L15.8203 5.84778V3.61149C15.8203 1.51751 15.8155 1.36145 15.7462 1.15981C15.5508 0.59192 15.1109 0.184342 14.5507 0.0521935C14.3533 0.00559198 13.3077 -0.00253299 7.9101 0.00059201C4.38667 0.00262326 1.42475 0.0197717 1.32807 0.0386388ZM14.1731 0.850904C14.1511 0.909772 8.28182 5.71528 8.17061 5.76548C8.03167 5.82821 7.7771 5.8277 7.65596 5.7645C7.55479 5.71169 1.94604 1.12715 1.73897 0.928053L1.62252 0.816061H7.90436C11.5688 0.816061 14.1807 0.830592 14.1731 0.850904ZM4.03995 3.902C5.72999 5.28774 7.18768 6.45969 7.27924 6.50633C7.64268 6.69141 8.13752 6.69977 8.52456 6.52735C8.61627 6.48649 10.086 5.30778 11.7907 3.90801C13.4953 2.50821 14.9039 1.36294 14.9209 1.36294C14.9899 1.36294 14.9989 1.62817 14.9994 3.69157L14.9999 5.84442L14.6972 5.8929C13.102 6.14848 11.7151 7.2761 11.1333 8.79063C10.9325 9.31321 10.7956 10.1859 10.8467 10.6172L10.8703 10.817L6.1221 10.8068L1.37385 10.7965L1.20448 10.6776C1.11131 10.6122 0.991157 10.4804 0.937446 10.3847L0.83979 10.2106V5.85512C0.83979 3.45962 0.852993 1.46743 0.869126 1.42805C0.88522 1.38868 0.913892 1.36231 0.932798 1.36946C0.951704 1.37661 2.34995 2.51626 4.03995 3.902ZM15.9451 9.2859C16.161 9.39153 16.4224 9.64169 16.523 9.83872C16.6913 10.1686 16.6926 10.6406 16.5262 10.9668C16.2148 11.5773 15.4495 11.8282 14.8429 11.5188C14.6463 11.4185 14.396 11.1571 14.2895 10.9409C14.159 10.6758 14.1602 10.132 14.2919 9.87856C14.4556 9.56348 14.7435 9.31872 15.0781 9.21004C15.269 9.14805 15.7492 9.19008 15.9451 9.2859Z" fill="white"/>
</svg>
