<svg width="20" height="20" viewBox="0 0 20 20" fill="none" xmlns="http://www.w3.org/2000/svg">
<path fill-rule="evenodd" clip-rule="evenodd" d="M4.56621 0.680288C4.12375 0.850132 3.4443 1.43787 2.64305 2.34384C1.84145 3.25021 1.04348 4.35349 0.753555 4.9563L0.611328 5.25197L0.656562 5.64361C1.0152 8.75009 3.60191 12.8077 7.0716 15.7065C9.51832 17.7506 12.16 19.0724 14.3358 19.3413C14.6943 19.3856 14.7154 19.3838 14.9416 19.2913C15.8649 18.9135 18.0438 17.1624 18.8683 16.1355C19.3744 15.5052 19.4621 15.18 19.25 14.7198C19.0886 14.3696 18.8784 14.1816 17.9748 13.5795C16.065 12.3069 14.6951 11.6017 14.1325 11.6017C13.6721 11.6017 13.4239 11.7772 12.7133 12.606C12.4408 12.9237 12.1953 13.189 12.1677 13.1956C12.0844 13.2152 11.4154 12.9406 10.9438 12.6931C9.36297 11.8635 8.13277 10.6345 7.30984 9.06259C7.06078 8.58689 6.78488 7.91572 6.80473 7.83396C6.81125 7.80709 7.07375 7.56396 7.38801 7.29365C8.21922 6.57873 8.39609 6.33209 8.39777 5.88556C8.4 5.29837 7.74461 4.01177 6.46242 2.08611C6.12305 1.57642 5.78348 1.11177 5.68191 1.01818C5.3473 0.709702 4.86781 0.564507 4.56621 0.680288ZM10.6252 1.87509V2.50009L10.8107 2.50041C11.6243 2.50181 12.7048 2.76431 13.5439 3.16439C14.9769 3.84771 16.0596 4.90693 16.7579 6.30869C17.1954 7.18709 17.3814 7.84841 17.4693 8.83798L17.5169 9.37509H18.1336H18.7502V9.20345C18.7502 8.9033 18.6741 8.23712 18.5891 7.79306C18.3578 6.58529 17.714 5.20724 16.9482 4.2808C15.5486 2.58779 13.6732 1.55861 11.5311 1.30802C11.2587 1.27615 10.9434 1.25009 10.8305 1.25009H10.6252V1.87509ZM5.1493 2.35361C5.77437 3.23541 6.47102 4.40685 6.92055 5.33212C7.04578 5.58994 7.14836 5.81232 7.14844 5.8263C7.14855 5.84029 6.93332 6.03365 6.67012 6.25595C6.00594 6.81701 5.60246 7.21103 5.52504 7.37419C5.43301 7.56806 5.46676 7.8149 5.66785 8.41966C6.09004 9.68923 7.03543 11.1561 8.07133 12.1489C9.19008 13.2211 10.585 14.055 11.8893 14.4315C12.2616 14.5389 12.4359 14.5539 12.5975 14.4924C12.7556 14.4323 13.0877 14.0992 13.6395 13.4474C13.9168 13.1197 14.1562 12.8517 14.1715 12.8519C14.1869 12.8519 14.4104 12.9545 14.6682 13.0797C15.5966 13.5308 16.7624 14.2235 17.6351 14.8426L18.0879 15.1637L17.7716 15.5101C17.0814 16.2662 15.6962 17.4248 14.8371 17.9645L14.5764 18.1284L14.3098 18.0839C10.8617 17.5084 6.58488 14.3358 3.9652 10.4102C2.855 8.74666 2.15879 7.14298 1.91652 5.6913L1.87215 5.42548L2.00805 5.20177C2.48348 4.41912 3.69852 2.96021 4.47188 2.24341C4.66578 2.06373 4.82742 1.91611 4.83109 1.91541C4.83477 1.91474 4.97797 2.11193 5.1493 2.35361ZM10.6252 4.98888V5.61384L10.9337 5.63959C11.845 5.7156 12.6361 6.09478 13.301 6.77412C13.933 7.41994 14.285 8.18326 14.3607 9.07236L14.3864 9.37509H15.0058H15.6252V9.21408C15.6252 8.67521 15.3855 7.72048 15.1147 7.18091C14.6382 6.23123 13.7924 5.37599 12.8713 4.91232C12.2905 4.62001 11.6398 4.44048 10.9809 4.39072L10.6252 4.36388V4.98888Z" fill="white"/>
</svg>
